# xmcd
#
# Track frame offsets: 
#        150
#        19198
#        33847
#        59678
#        99744
#        127400
#        153688
#        177721
#
# Disc length: 2689 seconds
#
# Revision: 0
# Processed by: cddbd v1.5.2PL0 Copyright (c) Steve Scherf et al.
# Submitted via: ExactAudioCopy v0.99pb5
#
DISCID=770a7f08
DTITLE=Jan Skrzek - Greatest hits
DYEAR=1987
DGENRE=Blues
TTITLE0=01.Majster,dajcie mi córkê
TTITLE1=02.Blues o skrzynce pocztowej
TTITLE2=03.To by³ ch³op
TTITLE3=04.Rewelacja blues
TTITLE4=05.Boogie woogie woman z Micha³owic
TTITLE5=06.Granice szczescia
TTITLE6=07.Country blues
TTITLE7=08.Swing Jasia
EXTD=
EXTT0=
EXTT1=
EXTT2=
EXTT3=
EXTT4=
EXTT5=
EXTT6=
EXTT7=
PLAYORDER=
